<svg width="36" height="33" viewBox="0 0 36 33" fill="none" xmlns="http://www.w3.org/2000/svg">
<path d="M16.26 5.29498L17.885 7.55958L19.51 5.29498C20.9442 3.29622 23.2711 2 25.903 2C30.2473 2 33.77 5.52244 33.77 9.868C33.77 10.4707 33.6937 11.0643 33.5554 11.651L33.5388 11.7213L33.5273 11.7926C32.9315 15.5004 30.5091 19.5224 27.2638 22.9902C24.2663 26.1932 20.7788 28.6966 17.8849 29.9203C14.9907 28.6966 11.5032 26.1932 8.50554 22.99C5.26018 19.5222 2.83741 15.4998 2.24059 11.7912L2.22957 11.7227L2.21382 11.6551C2.07628 11.0649 2 10.4697 2 9.868C2 5.5217 5.52244 2 9.868 2C12.4988 2 14.8258 3.29613 16.26 5.29498Z" fill="white" stroke="#FAD826" stroke-width="4"/>
</svg>
