<svg width="34" height="34" viewBox="0 0 34 34" fill="none" xmlns="http://www.w3.org/2000/svg">
<path d="M32.536 1.46475C30.583 -0.48825 27.418 -0.48825 25.465 1.46475L24.268 2.66375L27.11 5.50675C27.501 5.89775 27.501 6.53075 27.11 6.92075C26.915 7.11575 26.659 7.21375 26.403 7.21375C26.147 7.21375 25.891 7.11575 25.696 6.92075L22.855 4.07875L20.745 6.19075L23.586 9.03075C23.977 9.42075 23.977 10.0538 23.586 10.4447C23.391 10.6397 23.135 10.7378 22.879 10.7378C22.623 10.7378 22.367 10.6397 22.172 10.4447L19.332 7.60575L17.212 9.72775L20.049 12.5657C20.44 12.9567 20.44 13.5897 20.049 13.9797C19.854 14.1747 19.598 14.2727 19.342 14.2727C19.086 14.2727 18.83 14.1747 18.635 13.9797L15.798 11.1427L13.678 13.2657L16.514 16.1017C16.905 16.4928 16.905 17.1247 16.514 17.5157C16.319 17.7107 16.063 17.8088 15.807 17.8088C15.551 17.8088 15.295 17.7107 15.1 17.5157L12.265 14.6807L10.145 16.8037L12.978 19.6367C13.369 20.0278 13.369 20.6597 12.978 21.0507C12.783 21.2457 12.527 21.3438 12.271 21.3438C12.015 21.3438 11.759 21.2457 11.564 21.0507L8.731 18.2188L6.95 20.0037C3.107 20.0308 0 23.1517 0 27.0007C0 30.8667 3.134 34.0008 7 34.0008C10.832 34.0008 13.941 30.9198 13.995 27.1007L32.536 8.53675C34.488 6.58375 34.488 3.41775 32.536 1.46475Z" fill="#CCD6DD"/>
</svg>
