<svg width="248" height="248" viewBox="0 0 248 248" fill="none" xmlns="http://www.w3.org/2000/svg">
<path d="M123.999 20.6667C84.0094 20.6667 51.666 53.0101 51.666 93.0001C51.666 110.98 56.8327 127.823 66.236 143.013C76.0527 158.927 88.9693 172.567 98.8893 188.48C103.746 196.23 107.259 203.463 110.979 211.833C113.666 217.517 115.836 227.333 123.999 227.333C132.163 227.333 134.333 217.517 136.916 211.833C140.739 203.463 144.149 196.23 149.006 188.48C158.926 172.67 171.843 159.03 181.659 143.013C191.166 127.823 196.333 110.98 196.333 93.0001C196.333 53.0101 163.989 20.6667 123.999 20.6667ZM123.999 121.417C109.739 121.417 98.166 109.843 98.166 95.5834C98.166 81.3234 109.739 69.7501 123.999 69.7501C138.259 69.7501 149.833 81.3234 149.833 95.5834C149.833 109.843 138.259 121.417 123.999 121.417Z" fill="#D61C1C"/>
</svg>
