<svg width="100" height="100" viewBox="0 0 202 202" fill="none" xmlns="http://www.w3.org/2000/svg">
<g clip-path="url(#clip0_7_17)">
<path opacity="0.991" fill-rule="evenodd" clip-rule="evenodd" d="M56.2207 15.1895C46.4178 18.4191 37.9355 23.8111 30.7734 31.3652C28.6662 34.0627 26.4963 36.6929 24.2637 39.2559C17.8095 31.5969 15.1793 22.7857 16.3731 12.8223C20.2757 9.16362 24.747 6.5334 29.7871 4.93165C40.3779 3.85164 49.189 7.2709 56.2207 15.1895Z" fill="#F4DBB3"/>
<path opacity="0.998" fill-rule="evenodd" clip-rule="evenodd" d="M88.9668 28.9981C111.763 28.863 128.136 38.9893 138.086 59.377C140.214 64.7307 141.595 70.2542 142.229 75.9473C141.837 79.2945 141.705 82.7139 141.834 86.2051C141.441 88.5581 141.046 90.9253 140.65 93.3066C137.527 102.744 134.436 112.213 131.379 121.713C128.063 133.058 126.156 144.631 125.658 156.432C125.792 159.601 126.054 162.758 126.447 165.9C126.447 166.426 126.447 166.953 126.447 167.479C125.976 167.982 125.319 168.245 124.475 168.268C105.923 165.631 89.6158 158.201 75.5527 145.977C53.8366 126.154 40.8829 101.627 36.6914 72.3965C46.488 53.9202 60.8884 40.3089 79.8926 31.5625C82.934 30.5769 85.9589 29.7221 88.9668 28.9981Z" fill="#F4DBB3"/>
<path fill-rule="evenodd" clip-rule="evenodd" d="M26.2363 109.482C16.4816 95.1858 12.6678 79.4045 14.7949 62.1387C16.5326 54.2362 19.623 46.8719 24.0664 40.0449C22.7933 49.3286 24.5029 58.0083 29.1953 66.084C31.3035 68.6524 33.605 71.0196 36.0996 73.1855C29.979 84.5169 26.6913 96.616 26.2363 109.482Z" fill="#E1AF87"/>
<path fill-rule="evenodd" clip-rule="evenodd" d="M12.4277 -0.197266C14.7949 -0.197266 17.1621 -0.197266 19.5293 -0.197266C23.2663 0.882188 26.6856 2.59182 29.7871 4.93164C24.747 6.5334 20.2757 9.16362 16.3731 12.8223C15.1793 22.7857 17.8095 31.5969 24.2637 39.2559C26.4963 36.6929 28.6662 34.0626 30.7734 31.3652C37.9355 23.8111 46.4178 18.4191 56.2207 15.1895C65.3908 13.7011 73.676 15.7395 81.0762 21.3047C83.916 23.6845 86.546 26.2489 88.9668 28.998C85.9589 29.7221 82.934 30.5769 79.8926 31.5625C60.8884 40.3089 46.488 53.9202 36.6914 72.3965C40.8829 101.627 53.8366 126.154 75.5527 145.977C89.6158 158.201 105.923 165.631 124.475 168.268C125.319 168.245 125.976 167.982 126.447 167.479C127.492 172.307 129.202 176.91 131.576 181.287C135.722 188.328 141.64 193.194 149.33 195.885C141.256 198.918 132.97 200.891 124.475 201.803C119.083 201.803 113.691 201.803 108.299 201.803C84.8641 198.93 65.4662 188.541 50.1055 170.635C41.9604 161.059 35.5164 150.407 30.7734 138.678C27.3342 129.222 25.8218 119.49 26.2363 109.482C26.6913 96.616 29.979 84.5169 36.0996 73.1855C33.605 71.0196 31.3035 68.6524 29.1953 66.084C24.5029 58.0083 22.7933 49.3286 24.0664 40.0449C19.623 46.8719 16.5326 54.2362 14.7949 62.1387C14.8568 61.597 14.791 61.0707 14.5977 60.5605C7.24814 49.9054 4.94672 38.2668 7.69337 25.6445C6.39244 22.7131 5.14308 19.7541 3.94532 16.7676C1.76567 8.50148 4.59314 2.84655 12.4277 -0.197266Z" fill="#EBC9A0"/>
<path opacity="0.98" fill-rule="evenodd" clip-rule="evenodd" d="M149.33 195.885C141.64 193.194 135.722 188.328 131.576 181.287C154.367 188.792 171.003 181.822 181.484 160.377C187.412 145.969 188.859 131.109 185.824 115.795C184.278 109.048 181.517 102.867 177.539 97.252C171.434 90.6526 163.873 86.9046 154.854 86.0078C150.505 85.7265 146.165 85.792 141.834 86.2051C141.705 82.7139 141.837 79.2945 142.229 75.9473C156.032 73.7762 168.525 76.8665 179.709 85.2188C187.7 92.7125 192.895 101.853 195.293 112.639C199.568 130.632 199.173 148.518 194.109 166.295C191.199 176.138 185.873 184.357 178.131 190.953C169.35 197.107 159.75 198.751 149.33 195.885Z" fill="#E0AE86"/>
<path fill-rule="evenodd" clip-rule="evenodd" d="M131.576 181.287C129.202 176.91 127.492 172.307 126.447 167.479C126.447 166.953 126.447 166.426 126.447 165.9C139.033 168.255 150.474 165.69 160.771 158.207C169.921 149.575 174.393 138.922 174.186 126.25C173.125 105.003 161.946 94.0215 140.65 93.3066C141.046 90.9252 141.441 88.5581 141.834 86.2051C146.165 85.792 150.505 85.7265 154.854 86.0078C163.873 86.9046 171.434 90.6526 177.539 97.2519C181.517 102.867 184.278 109.048 185.824 115.795C188.859 131.109 187.412 145.969 181.484 160.377C171.003 181.822 154.367 188.792 131.576 181.287Z" fill="#95776A"/>
<path fill-rule="evenodd" clip-rule="evenodd" d="M140.65 93.3066C161.946 94.0215 173.125 105.003 174.186 126.25C174.393 138.922 169.921 149.575 160.771 158.207C150.474 165.69 139.033 168.255 126.447 165.9C126.054 162.758 125.792 159.601 125.658 156.432C126.156 144.631 128.063 133.058 131.379 121.713C134.436 112.213 137.527 102.744 140.65 93.3066Z" fill="#4B3F4E"/>
</g>
<defs>
<clipPath id="clip0_7_17">
<rect width="202" height="202" fill="white"/>
</clipPath>
</defs>
</svg>
